<?xml version="1.0" encoding="UTF-8" standalone="no"?><!DOCTYPE svg PUBLIC "-//W3C//DTD SVG 1.1//EN" "http://www.w3.org/Graphics/SVG/1.1/DTD/svg11.dtd"><svg width="100%" height="100%" viewBox="0 0 612 716" version="1.1" xmlns="http://www.w3.org/2000/svg" xmlns:xlink="http://www.w3.org/1999/xlink" xml:space="preserve" xmlns:serif="http://www.serif.com/" style="fill-rule:evenodd;clip-rule:evenodd;stroke-linecap:round;stroke-linejoin:round;"><path d="M372.374,305.573c-4.474,-15.368 -13.254,1.276 -13.448,8.925l13.448,-8.925Z" style="fill:#ffef6a;fill-rule:nonzero;"/><path d="M372.374,305.573c-4.474,-15.368 -13.254,1.276 -13.448,8.925" style="fill:none;fill-rule:nonzero;stroke:#ffef6a;stroke-width:1.79px;"/><path d="M321.541,442.335c-0.407,2.72 -0.824,5.512 -1.264,8.389l-1.125,15.375c-0.433,5.576 -0.885,11.022 -1.33,16.371c-3.026,36.389 -5.679,68.3 0.955,105.879c2.562,9.599 3.909,18.209 5.21,26.527c3.88,24.811 7.355,47.026 41.475,85.223c27.664,20.558 66.162,0.855 91.315,-13.125c29.584,-15.36 50.873,-40.155 72.15,-64.931c13.065,-15.217 26.13,-30.428 41.1,-43.444c21.78,-12.499 42.54,-30.076 40.013,-56.995c0.675,-23.563 -16.665,-34.278 -33.938,-44.948c-10.005,-6.179 -19.98,-12.343 -26.422,-20.98c-17.678,-24.646 -38.235,-49.326 -63.884,-65.675c-4.974,-3.925 -10.373,-7.108 -15.754,-10.279c-4.695,-2.768 -9.378,-5.527 -13.752,-8.766c-21.51,-19.017 -62.423,-30.807 -82.761,-30.107c-2.932,-6.414 -2.25,-14.633 -1.563,-22.888c0.676,-8.153 1.356,-16.341 -1.438,-22.862c-3.983,-1.498 -6.674,0.32 -8.555,4.025c-2.913,4.086 -4.316,11.603 -3.886,16.91c-0.361,3.176 -0.644,6.445 -0.918,9.604c-0.714,8.229 -1.364,15.724 -3.142,18.961c0.561,6.22 -2.628,10.174 -5.924,14.262c-2.483,3.079 -5.027,6.233 -6.076,10.488c-13.465,26.004 -16.444,45.935 -20.486,72.986Z" style="fill:#ffef6a;"/><path d="M537.56,443.961c21.052,13.852 44.52,28.42 56.175,51.516c12.232,38.583 -46.11,30.867 -57.93,6.813c-3.623,-4.465 -6.818,-9.261 -9.893,-14.109" style="fill:#ffef6a;fill-rule:nonzero;"/><path d="M537.56,443.961c21.052,13.852 44.52,28.42 56.175,51.516c12.232,38.583 -46.11,30.867 -57.93,6.813c-3.623,-4.465 -6.818,-9.261 -9.893,-14.109" style="fill:none;fill-rule:nonzero;stroke:#ffef6a;stroke-width:1.79px;"/><path d="M230.654,177.936c7.998,-18.558 3.375,-36.961 1.589,-59.741c3.349,-21.541 -0,-46.595 5.259,-67.134c9.064,34.749 6.293,72.162 9.044,108.027c11.224,31.292 -9.328,52.445 -29.461,73.393c-23.796,37.122 -11.449,-33.717 3.714,-43.24c2.582,-3.49 5.529,-7.048 6.732,-11.305" style="fill:#ffef6a;fill-rule:nonzero;"/><path d="M230.654,177.936c7.998,-18.558 3.375,-36.961 1.589,-59.741c3.349,-21.541 -0,-46.595 5.259,-67.134c9.064,34.749 6.293,72.162 9.044,108.027c11.224,31.292 -9.328,52.445 -29.461,73.393c-23.796,37.122 -11.449,-33.717 3.714,-43.24c2.582,-3.49 5.529,-7.048 6.732,-11.305" style="fill:none;fill-rule:nonzero;stroke:#ffef6a;stroke-width:1.79px;"/><path d="M241.607,55.842c-4.424,-12.228 -8.422,1.129 -7.626,7.11l7.626,-7.11Z" style="fill:#ffef6a;fill-rule:nonzero;"/><path d="M241.607,55.842c-4.424,-12.228 -8.422,1.129 -7.626,7.11" style="fill:none;fill-rule:nonzero;stroke:#ffef6a;stroke-width:1.79px;"/><path d="M240.951,60.468c0.563,-19.123 -9.174,-14.396 -8.025,1.341l8.025,-1.341Z" style="fill:#ffef6a;fill-rule:nonzero;"/><path d="M240.951,60.468c0.563,-19.123 -9.174,-14.396 -8.025,1.341" style="fill:none;fill-rule:nonzero;stroke:#ffef6a;stroke-width:1.79px;"/><path d="M246.736,188.869c9.988,20.781 21.566,40.882 26.408,63.747c17.154,38.425 19.154,80.765 21.46,122.098c0.818,56.791 -11.035,114.603 -39.123,164.263c-14.178,27.419 -47.022,10.348 -61.144,-8.025c-44.043,-51.05 -70.863,-116.844 -71.251,-184.621c-0.208,-53.555 13.65,-113.439 57.101,-148.563c13.568,-9.86 30.45,-10.184 46.381,-12.344" style="fill:#ffef6a;fill-rule:nonzero;"/><path d="M246.736,188.869c9.988,20.781 21.566,40.882 26.408,63.747c17.154,38.425 19.154,80.765 21.46,122.098c0.818,56.791 -11.035,114.603 -39.123,164.263c-14.178,27.419 -47.022,10.348 -61.144,-8.025c-44.043,-51.05 -70.863,-116.844 -71.251,-184.621c-0.208,-53.555 13.65,-113.439 57.101,-148.563c13.568,-9.86 30.45,-10.184 46.381,-12.344" style="fill:none;fill-rule:nonzero;stroke:#ffef6a;stroke-width:1.79px;"/><path d="M65.136,279.814c7.561,-11.041 17.45,-20.749 26.423,-30.761c37.34,-34.536 82.562,-64.624 134.867,-67.528c2.417,28.961 -4.202,67.139 -5.27,99.438c-5.295,61.394 -7.416,123.297 -16.73,184.187c-28.48,25.959 -72.517,8.892 -98.427,-12.762c-35.362,-32.545 -63.897,-80.831 -51.653,-130.485c2.657,-14.01 4.456,-28.414 10.18,-41.604" style="fill:#ffef6a;fill-rule:nonzero;"/><path d="M65.136,279.814c7.561,-11.041 17.45,-20.749 26.423,-30.761c37.34,-34.536 82.562,-64.624 134.867,-67.528c2.417,28.961 -4.202,67.139 -5.27,99.438c-5.295,61.394 -7.416,123.297 -16.73,184.187c-28.48,25.959 -72.517,8.892 -98.427,-12.762c-35.362,-32.545 -63.897,-80.831 -51.653,-130.485c2.657,-14.01 4.456,-28.414 10.18,-41.604" style="fill:none;fill-rule:nonzero;stroke:#ffef6a;stroke-width:1.79px;"/><path d="M194.045,572.235c36.723,2.394 61.754,-37.594 55.473,-71.453c-6.521,-32.382 -31.143,-57.965 -50.445,-83.756c-24.781,-26.636 -60.737,-39.869 -82.806,-69.478c-19.371,-13.246 -37.562,-54.336 -57.785,-51.824c-18.389,18.796 -20.767,47.725 -41.392,65.003c-15.406,20.44 -19.406,49.921 -3.194,71.138c10.614,17.71 29.315,28.4 40.766,45.628c19.574,24.065 42.345,45.875 69.995,60.134c18.364,11.524 39.184,18.226 57.349,30.222c3.618,1.722 7.629,2.39 11.28,4.042" style="fill:#ffef6a;fill-rule:nonzero;"/><path d="M194.045,572.235c36.723,2.394 61.754,-37.594 55.473,-71.453c-6.521,-32.382 -31.143,-57.965 -50.445,-83.756c-24.781,-26.636 -60.737,-39.869 -82.806,-69.478c-19.371,-13.246 -37.562,-54.336 -57.785,-51.824c-18.389,18.796 -20.767,47.725 -41.392,65.003c-15.406,20.44 -19.406,49.921 -3.194,71.138c10.614,17.71 29.315,28.4 40.766,45.628c19.574,24.065 42.345,45.875 69.995,60.134c18.364,11.524 39.184,18.226 57.349,30.222c3.618,1.722 7.629,2.39 11.28,4.042" style="fill:none;fill-rule:nonzero;stroke:#ffef6a;stroke-width:1.79px;"/><path d="M225.402,554.599c5.225,9.035 1.986,65.374 19.125,37.875c3.324,-19.589 4.221,-35.296 7.5,-55.5" style="fill:#ffef6a;fill-rule:nonzero;"/><path d="M236.564,617.142c-8.206,16.852 13.963,27.082 1.328,2.176l-1.328,-2.176Z" style="fill:#ffef6a;fill-rule:nonzero;"/><path d="M236.564,617.142c-8.206,16.852 13.963,27.082 1.328,2.176" style="fill:none;fill-rule:nonzero;stroke:#ffef6a;stroke-width:1.79px;"/><path d="M238.152,664.474c-0.141,8.49 5.57,7.53 2.25,-1.62l-2.25,1.62Z" style="fill:#ffef6a;fill-rule:nonzero;"/><path d="M238.152,664.474c-0.141,8.49 5.57,7.53 2.25,-1.62" style="fill:none;fill-rule:nonzero;stroke:#ffef6a;stroke-width:1.79px;"/><path d="M175.847,208.308c-9.888,-17.112 -15.693,-44.833 -27.95,-59.463c1.462,27.986 19.761,52.779 22.686,81.071l0.25,1.866l0.009,0.067" style="fill:#ffef6a;fill-rule:nonzero;"/><path d="M175.847,208.308c-9.888,-17.112 -15.693,-44.833 -27.95,-59.463c1.462,27.986 19.761,52.779 22.686,81.071l0.25,1.866l0.009,0.067" style="fill:none;fill-rule:nonzero;stroke:#ffef6a;stroke-width:1.79px;"/><path d="M155.662,155.606c-4.315,-16.889 -12.896,-9.51 -8.573,3.892l8.573,-3.892Z" style="fill:#ffef6a;fill-rule:nonzero;"/><path d="M155.662,155.606c-4.315,-16.889 -12.896,-9.51 -8.573,3.892" style="fill:none;fill-rule:nonzero;stroke:#ffef6a;stroke-width:1.79px;"/><path d="M154.529,157.85c-3.543,-23.177 -11.772,-13.351 -4.876,2.624l4.876,-2.624Z" style="fill:#ffef6a;fill-rule:nonzero;"/><path d="M154.529,157.85c-3.543,-23.177 -11.772,-13.351 -4.876,2.624" style="fill:none;fill-rule:nonzero;stroke:#ffef6a;stroke-width:1.79px;"/><path d="M125.036,80.974c-8.763,11.635 7.149,21.557 3.379,4.622l-0.137,-2.372l-2.863,-1.185" style="fill:#ffef6a;fill-rule:nonzero;"/><path d="M275.198,24.691c-8.648,4.57 1.686,24.171 5.061,10.03c0.126,-4.058 -1.999,-8.162 -5.513,-10.939" style="fill:#ffef6a;fill-rule:nonzero;"/><path d="M275.198,24.691c-8.648,4.57 1.686,24.171 5.061,10.03c0.126,-4.058 -1.999,-8.162 -5.513,-10.939" style="fill:none;fill-rule:nonzero;stroke:#ffef6a;stroke-width:1.79px;"/><path d="M240.008,4.515c-7.489,-0.903 -6.216,14.658 -0.173,11.548c1.861,-4.684 -0.016,-9.75 -1.706,-14.134" style="fill:#ffef6a;fill-rule:nonzero;"/><path d="M240.008,4.515c-7.489,-0.903 -6.216,14.658 -0.173,11.548c1.861,-4.684 -0.016,-9.75 -1.706,-14.134" style="fill:none;fill-rule:nonzero;stroke:#ffef6a;stroke-width:1.79px;"/><path d="M369.029,251.6c-9.251,0.142 -1.286,22.243 3.051,9.75c0.752,-3.519 0.486,-7.194 0.084,-10.74" style="fill:#ffef6a;fill-rule:nonzero;"/><path d="M321.027,482.224c-10.876,31.621 -1.124,66.375 1.02,100.5c6.854,40.59 22.279,79.808 44.609,114.3c17.039,17.625 52.488,8.445 70.996,0c54.386,-31.972 90.75,-75.3 138.405,-129.242c23.28,-12.142 40.568,-39.102 25.793,-64.358c-16.965,-39.971 -66.405,-43.29 -103.583,-48.688c-53.226,-2.744 -108.918,-12.888 -160.669,4.53c-11.956,4.731 -12.701,11.708 -16.571,22.958Z" style="fill:#d5900a;fill-rule:nonzero;stroke:#d5900a;stroke-width:1.79px;"/><path d="M586.737,478.535c20.4,16.968 33.323,56.451 8.205,74.639c-9.502,5.849 -21.105,5.728 -31.71,3.638" style="fill:#d5900a;fill-rule:nonzero;"/><path d="M586.737,478.535c20.4,16.968 33.323,56.451 8.205,74.639c-9.502,5.849 -21.105,5.728 -31.71,3.638" style="fill:none;fill-rule:nonzero;stroke:#d5900a;stroke-width:1.79px;"/><path d="M321.951,488.416c-14.881,64.43 -1.994,150.641 34.326,205.308c8.332,13.905 28.68,10.545 42.375,0" style="fill:#d5900a;fill-rule:nonzero;"/><path d="M321.951,488.416c-14.881,64.43 -1.994,150.641 34.326,205.308c8.332,13.905 28.68,10.545 42.375,0" style="fill:none;fill-rule:nonzero;stroke:#d5900a;stroke-width:1.79px;"/><path d="M165.57,300.349c-26.618,7.403 -60.576,8.361 -84.587,24.746c-27.349,13.406 -45.013,39.343 -67.041,59.358c-14.369,23.697 3.214,52.07 22.513,67.164c29.151,31.581 52.159,71.133 93.584,88.621c27.379,10.873 55.733,31.079 86.473,25.605c17.773,-4.873 3.278,-19.642 -5.376,-24.833c-32.346,-28.887 -43.764,-72.695 -45.566,-114.566c-1.27,-16.487 -6.28,-33.322 -3.145,-49.858" style="fill:#d5900a;fill-rule:nonzero;"/><path d="M247.398,335.48c0.932,4.521 -7.212,11.856 0.149,13.332c8.505,-29.891 8.192,-62.565 17.983,-92.711c6.71,-20.889 -12.038,-50.496 -28.394,-53.691c22.546,20.843 23.339,52.994 17.71,81.063c-0.602,12.773 -0.686,26.101 -4.577,38.103c0.723,4.806 -3.126,8.97 -2.878,13.846" style="fill:#fff;fill-rule:nonzero;"/><path d="M247.398,335.48c0.932,4.521 -7.212,11.856 0.149,13.332c8.505,-29.891 8.192,-62.565 17.983,-92.711c6.71,-20.889 -12.038,-50.496 -28.394,-53.691c22.546,20.843 23.339,52.994 17.71,81.063c-0.602,12.773 -0.686,26.101 -4.577,38.103c0.723,4.806 -3.126,8.97 -2.878,13.846" style="fill:none;fill-rule:nonzero;stroke:#fff;stroke-width:1.79px;"/><path d="M237.884,200.367c-27.537,-11.256 -47.916,18.89 -56.686,41.13c-5.764,15.082 -19.673,47.702 -4.4,58.084c17.481,-22.06 12.45,-57.238 37.891,-74.651c13.179,-11.634 31.809,-7.493 43.688,3.709" style="fill:#fff;fill-rule:nonzero;"/><path d="M237.884,200.367c-27.537,-11.256 -47.916,18.89 -56.686,41.13c-5.764,15.082 -19.673,47.702 -4.4,58.084c17.481,-22.06 12.45,-57.238 37.891,-74.651c13.179,-11.634 31.809,-7.493 43.688,3.709" style="fill:none;fill-rule:nonzero;stroke:#fff;stroke-width:1.79px;"/><path d="M259.647,232.383c16.544,22.742 25.168,53.085 23.208,80.778c-6.905,-23.232 -11.313,-47.526 -23.65,-69.183" style="fill:#fff;fill-rule:nonzero;"/><path d="M259.647,232.383c16.544,22.742 25.168,53.085 23.208,80.778c-6.905,-23.232 -11.313,-47.526 -23.65,-69.183" style="fill:none;fill-rule:nonzero;stroke:#fff;stroke-width:1.79px;"/><path d="M275.684,290.195c7.311,42.157 15.248,85.462 6.777,127.997c13.928,-9.592 5.915,-53.446 6.08,-75.234c-0.609,-19.257 -2.947,-38.473 -8.225,-57.043" style="fill:#fff;fill-rule:nonzero;"/><path d="M275.684,290.195c7.311,42.157 15.248,85.462 6.777,127.997c13.928,-9.592 5.915,-53.446 6.08,-75.234c-0.609,-19.257 -2.947,-38.473 -8.225,-57.043" style="fill:none;fill-rule:nonzero;stroke:#fff;stroke-width:1.79px;"/><path d="M287.243,396.462c-8.754,23.814 -10.611,49.508 -18.348,73.74c-1.662,18.752 -13.123,35.046 -30.307,42.408c-18.783,10.328 -3.021,40.974 12.817,20.239c22.906,-32.139 28.233,-73.168 36.172,-111.009c1.197,-10.643 1.695,-21.36 1.514,-32.068" style="fill:#fff;fill-rule:nonzero;"/><path d="M287.243,396.462c-8.754,23.814 -10.611,49.508 -18.348,73.74c-1.662,18.752 -13.123,35.046 -30.307,42.408c-18.783,10.328 -3.021,40.974 12.817,20.239c22.906,-32.139 28.233,-73.168 36.172,-111.009c1.197,-10.643 1.695,-21.36 1.514,-32.068" style="fill:none;fill-rule:nonzero;stroke:#fff;stroke-width:1.79px;"/><path d="M172.338,281.082c-2.74,30.767 -9.263,61.907 -5.849,92.754c16.046,27.002 12.106,-41.323 15.054,-51.56c1.252,-13.608 2.732,-27.2 4.611,-40.736" style="fill:#fff;fill-rule:nonzero;"/><path d="M172.338,281.082c-2.74,30.767 -9.263,61.907 -5.849,92.754c16.046,27.002 12.106,-41.323 15.054,-51.56c1.252,-13.608 2.732,-27.2 4.611,-40.736" style="fill:none;fill-rule:nonzero;stroke:#fff;stroke-width:1.79px;"/><path d="M203.201,240.416c-2.693,7.568 10.18,36.211 7.68,46.03c-7.431,-11.028 -11.085,-29.202 -28.068,-26.001" style="fill:#fff;fill-rule:nonzero;"/><path d="M203.201,240.416c-2.693,7.568 10.18,36.211 7.68,46.03c-7.431,-11.028 -11.085,-29.202 -28.068,-26.001" style="fill:none;fill-rule:nonzero;stroke:#fff;stroke-width:1.79px;"/><path d="M198.29,235.049c-4.924,4.669 -19.077,43.474 0.46,27.98l-0.46,-27.98Z" style="fill:#fff;fill-rule:nonzero;"/><path d="M198.29,235.049c-4.924,4.669 -19.077,43.474 0.46,27.98" style="fill:none;fill-rule:nonzero;stroke:#fff;stroke-width:1.79px;"/><path d="M176.635,357.966c5.758,50.007 -1.802,106.638 30.174,149.413c6.969,14.003 29.353,20.651 31.449,-0.723c10.234,2.432 11.725,21.132 10.264,30.338c-11.148,21.023 -39.43,6.943 -47.731,-9.532c-29.078,-47.453 -33.557,-105.17 -33.026,-159.503c0.255,-6.272 0.855,-12.512 1.387,-18.762" style="fill:#fff;fill-rule:nonzero;"/><path d="M176.635,357.966c5.758,50.007 -1.802,106.638 30.174,149.413c6.969,14.003 29.353,20.651 31.449,-0.723c10.234,2.432 11.725,21.132 10.264,30.338c-11.148,21.023 -39.43,6.943 -47.731,-9.532c-29.078,-47.453 -33.557,-105.17 -33.026,-159.503c0.255,-6.272 0.855,-12.512 1.387,-18.762" style="fill:none;fill-rule:nonzero;stroke:#fff;stroke-width:1.79px;"/><path d="M176.609,282.084c-13.375,19.115 -12.62,57.726 -5.087,74.193c3.055,-7.143 4.523,-14.801 6.065,-22.37" style="fill:#fff;fill-rule:nonzero;"/><path d="M176.609,282.084c-13.375,19.115 -12.62,57.726 -5.087,74.193c3.055,-7.143 4.523,-14.801 6.065,-22.37" style="fill:none;fill-rule:nonzero;stroke:#fff;stroke-width:1.79px;"/><path d="M233.945,335.926c-4.113,4.304 4.093,21.217 -4.26,28.016c-9.427,5.542 0.49,14.963 -2.784,23.378c-6.64,13.539 4.132,8.406 6.915,16.994c-0.041,6.776 3.185,22.011 3.162,7.952c1.025,-8.276 10.173,-5.857 15.433,-5.655c-1.252,-6.051 4.803,-9.361 6.079,-13.834c-4.31,-7.56 -4.777,-18.153 1.989,-24.008c-11.442,-9.603 -6.565,-57.254 -11.667,-26.474c-5.777,2.618 -14.797,1.907 -14.833,-6.16" style="fill:#fff;fill-rule:nonzero;"/><path d="M233.945,335.926c-4.113,4.304 4.093,21.217 -4.26,28.016c-9.427,5.542 0.49,14.963 -2.784,23.378c-6.64,13.539 4.132,8.406 6.915,16.994c-0.041,6.776 3.185,22.011 3.162,7.952c1.025,-8.276 10.173,-5.857 15.433,-5.655c-1.252,-6.051 4.803,-9.361 6.079,-13.834c-4.31,-7.56 -4.777,-18.153 1.989,-24.008c-11.442,-9.603 -6.565,-57.254 -11.667,-26.474c-5.777,2.618 -14.797,1.907 -14.833,-6.16" style="fill:none;fill-rule:nonzero;stroke:#fff;stroke-width:1.79px;"/><path d="M237.171,407.094c-4.571,34.437 -4.3,70.323 4.404,104.22c0.453,0.937 -1.756,10.379 -2.909,5.955" style="fill:none;fill-rule:nonzero;stroke:#fff;stroke-width:4.08px;"/><path d="M254.636,400.909c2.241,20.351 13.674,46.194 15.676,67.156" style="fill:none;fill-rule:nonzero;stroke:#fff;stroke-width:4.03px;"/><path d="M278.921,305.006c5.729,7.681 2.986,22.664 -1.184,32.129c-5.225,11.984 -18.865,30.812 -3.657,8.882c5.848,-4.587 4.919,-13.825 12.887,-16.199" style="fill:none;fill-rule:nonzero;stroke:#fff;stroke-width:2.76px;"/><path d="M204.329,272.796c5.223,14.169 13.071,36.821 23.874,51.933c2.229,7.768 3.999,16.128 9.218,22.479" style="fill:none;fill-rule:nonzero;stroke:#fff;stroke-width:2.11px;"/><path d="M228.788,367.388c-7.916,1.98 -21.31,3.482 -30.873,0.95c-7.61,0.319 -15.912,-7.592 -22.725,-4.175l-0.115,0.266" style="fill:none;fill-rule:nonzero;stroke:#fff;stroke-width:2.9px;"/><path d="M225.735,394.386c-15.33,21.945 -26.453,49.884 -38.999,74.69c4.996,-13.111 35.453,-63.217 14.539,-28.295c-1.347,7.871 -23.827,23.502 -10.803,19.321c-0.667,4.647 -4.937,10.751 -3.175,14.778" style="fill:none;fill-rule:nonzero;stroke:#fff;stroke-width:3.44px;"/><path d="M233.691,456.543c-5.883,22.631 10.431,46.686 -3.68,67.548c0.682,0.449 -3.838,6.588 -2.772,4.551" style="fill:none;fill-rule:nonzero;stroke:#fff;stroke-width:4.44px;"/><path d="M250.912,199.704c17.594,17.287 21.355,47.294 30.842,70.33c13.388,60.182 20.285,123.548 4.376,183.878c-5.598,28.716 -16.131,56.13 -29.222,82.194" style="fill:none;fill-rule:nonzero;stroke:#000;stroke-width:6.09px;"/><path d="M256.219,533.928c-11.498,10.668 -7.407,34.706 -11.361,50.252c1.198,5.925 -5.792,21.582 -12.032,12.493c-4.137,-13.757 -2.415,-28.707 -6.691,-42.113c-1.792,-1.852 -4.061,-6.874 -7.452,-5.734" style="fill:none;fill-rule:nonzero;stroke:#000;stroke-width:3.48px;"/><path d="M233.933,619.713c-7.896,5.004 8.596,31.846 9.097,7.171c-1.003,-2.557 -2.95,-10.134 -6.401,-8.55" style="fill:none;fill-rule:nonzero;stroke:#000;stroke-width:4.65px;"/><path d="M237.671,660.364c-3.449,13.778 7.827,18.473 1.95,1.035" style="fill:none;fill-rule:nonzero;stroke:#000;stroke-width:3.01px;"/><path d="M122.063,87.924c2.468,18.15 15.072,-9.66 1.701,-5.77l-0.393,1.396" style="fill:none;fill-rule:nonzero;stroke:#000;stroke-width:3.34px;"/><path d="M274.3,22.324c-13.381,31.476 22.183,17.87 2.166,1.869" style="fill:none;fill-rule:nonzero;stroke:#000;stroke-width:2.84px;"/><path d="M250.48,199.02c-2.267,-27.262 -4.327,-60.423 -6.124,-90.141c-2.795,-21.211 0.601,-43.991 -5.836,-64.29c-11.353,8.175 -2.424,32.732 -4.743,46.686c-4.962,28.703 5.318,59.475 -4.956,87.027c-2.851,6.467 -7.121,-1.014 -10.184,1.473" style="fill:none;fill-rule:nonzero;stroke:#000;stroke-width:3.99px;"/><path d="M236.592,1.626c-13.048,10.868 12.119,29.473 4.79,3.975l-2.744,-3.967l-0.715,1.255" style="fill:none;fill-rule:nonzero;stroke:#000;stroke-width:3.25px;"/><path d="M195.97,201.283c-0.08,18.031 -23.072,21.459 -23.055,1.871c-9.107,-19.113 -14.819,-39.306 -21.004,-59.401c-7.765,-10.375 -9.108,8.403 -5.051,13.569c7.789,25.609 18.827,49.903 27.125,75.247c2.776,6.825 -1.297,22.641 -10.834,16.693c-5.858,15.19 13.242,30.294 5.248,46.706l-1.221,4.292" style="fill:none;fill-rule:nonzero;stroke:#000;stroke-width:2.73px;"/><path d="M216.186,184.73c-9.488,3.464 -16.405,12.878 -20.743,21.647" style="fill:none;fill-rule:nonzero;stroke:#000;stroke-width:1.75px;"/><path d="M215.243,180.853c-10.757,0.939 -22.815,1.156 -31.94,7.661" style="fill:none;fill-rule:nonzero;stroke:#000;stroke-width:2.85px;"/><path d="M156.686,202.395c-35.401,15.912 -64.482,43.506 -88.293,73.709c-18.912,24.422 -28.393,54.503 -45.683,79.693c-3.285,2.386 -6.21,6.905 -9.744,8.421" style="fill:none;fill-rule:nonzero;stroke:#000;stroke-width:4.24px;"/><path d="M16.319,363.674c-7.786,0.348 -9.177,13.785 -11.656,20.245c-2.895,17.739 -0.23,38.307 10.186,53.366c7.323,7.359 18.114,11.642 22.673,21.388" style="fill:none;fill-rule:nonzero;stroke:#000;stroke-width:5.43px;"/><path d="M31.431,421.873c1.811,2.562 2.446,5.682 3.842,8.461" style="fill:none;fill-rule:nonzero;stroke:#000;stroke-width:2.51px;"/><path d="M17.355,418.539c0.892,0.996 0.842,2.49 2.087,3.294" style="fill:none;fill-rule:nonzero;stroke:#000;stroke-width:3.29px;"/><path d="M41.143,451.757c2.03,1.547 2.707,4.635 2.74,7.004" style="fill:none;fill-rule:nonzero;stroke:#000;stroke-width:3.4px;"/><path d="M37.667,461.204c11.223,0.194 17.456,13.234 24.534,20.514c27.918,40.227 74.568,61.081 118.206,79.395c14.145,5.759 29.095,7.087 44.324,6.055" style="fill:none;fill-rule:nonzero;stroke:#000;stroke-width:6.72px;"/><path d="M163.682,310.926c-2.382,31.429 -1.239,68.771 -0.028,102.453c-0.303,45.771 15.6,90.853 43.954,126.426c1.962,2.86 3.129,6.727 6.607,8.124" style="fill:none;fill-rule:nonzero;stroke:#000;stroke-width:3.84px;"/><path d="M248.576,329.94c1.498,16.061 -12.456,22.791 -15.273,4.329c-1.809,-3.655 -3.822,-7.207 -5.661,-10.849" style="fill:none;fill-rule:nonzero;stroke:#000;stroke-width:1.77px;"/><path d="M207.944,266.331c-5.005,-12.154 -7.407,-26.688 2.595,-37.005c4.254,-4.086 8.956,-8.303 14.33,-10.908" style="fill:none;fill-rule:nonzero;stroke:#000;stroke-width:1.42px;"/><path d="M252.389,230.449c5.48,5.067 4.124,14.052 4.675,20.722" style="fill:none;fill-rule:nonzero;stroke:#000;stroke-width:1.5px;"/><path d="M230.171,349.302c3.104,-0.438 6.081,2.842 1.377,-4.562" style="fill:none;fill-rule:nonzero;stroke:#000;stroke-width:1.44px;"/><path d="M230.882,348.803c2.311,3.573 1.165,9.655 -0.181,13.777" style="fill:none;fill-rule:nonzero;stroke:#000;stroke-width:1.68px;"/><path d="M233.407,391.686c3.451,10.748 0.398,23.235 -0.024,33.182" style="fill:none;fill-rule:nonzero;stroke:#000;stroke-width:1.41px;"/><path d="M252.631,407.624c-7.301,-0.983 -16.015,-0.922 -14.774,9.877" style="fill:none;fill-rule:nonzero;stroke:#000;stroke-width:1.52px;"/><path d="M252.341,345.303c-2.657,5.057 6.588,31.47 10.92,14.369" style="fill:none;fill-rule:nonzero;stroke:#000;stroke-width:1.58px;"/><path d="M265.136,257.52c8.125,15.837 12.261,34.674 13.239,52.446" style="fill:none;fill-rule:nonzero;stroke:#000;stroke-width:1.9px;"/><path d="M280.806,338.203c6.491,21.593 9.584,49.18 -0.151,71.066l-0.233,-0.999" style="fill:none;fill-rule:nonzero;stroke:#000;stroke-width:1.57px;"/><path d="M278.625,342.909c-1.22,-0.22 -1.084,1.962 -1.709,2.511" style="fill:none;fill-rule:nonzero;stroke:#000;stroke-width:1.4px;"/><path d="M257.48,385.559c0.472,3.143 1.05,6.61 3.881,8.622" style="fill:none;fill-rule:nonzero;stroke:#000;stroke-width:1.97px;"/><path d="M279.655,421.834c1.372,16.424 -12.651,52.904 -14.077,14.94l-0.948,-3.52l-1.321,-4.295" style="fill:none;fill-rule:nonzero;stroke:#000;stroke-width:1.39px;"/><path d="M259.476,429.914c5.63,21.644 14.364,47.286 -1.463,66.755c-0.302,6.409 -13.378,18.835 -15.324,6.692c-11.709,-26.699 -6.485,-58.293 -4.217,-86.498" style="fill:none;fill-rule:nonzero;stroke:#000;stroke-width:1.43px;"/><path d="M232.124,425.79c-3.256,24.843 -2.149,50.557 2.912,75.009c0.025,5.097 -1.895,10.062 -4.541,14.348" style="fill:none;fill-rule:nonzero;stroke:#000;stroke-width:1.38px;"/><path d="M230.627,515.089c-0.084,0.424 -0.475,1.971 -0.587,2.321" style="fill:none;fill-rule:nonzero;stroke:#000;stroke-width:1.51px;"/><path d="M180.162,415.487c-1.591,-10.015 0.047,-20.069 -0.684,-30.126" style="fill:none;fill-rule:nonzero;stroke:#000;stroke-width:1.42px;"/><path d="M201.083,449.094c-0.54,1.211 -1.08,2.422 -1.621,3.633" style="fill:none;fill-rule:nonzero;stroke:#000;stroke-width:1.41px;"/><path d="M193.787,449.133c4.699,-9.336 10.923,-17.759 14.379,-27.784" style="fill:none;fill-rule:nonzero;stroke:#000;stroke-width:1.42px;"/><path d="M194.064,448.485c-17.03,19.456 -11.623,-21.758 -14.178,-31.359c1.231,-5.188 -2.909,-10.11 0.15,-15.087" style="fill:none;fill-rule:nonzero;stroke:#000;stroke-width:1.96px;"/><path d="M224.729,386.319c0.365,-1.537 0.681,-3.168 0.123,-4.713" style="fill:none;fill-rule:nonzero;stroke:#000;stroke-width:1.63px;"/><path d="M185.904,302.891c-7.292,14.731 -10.753,37.798 -6.302,55.172c1.793,1.607 4.084,2.239 6.391,2.682" style="fill:none;fill-rule:nonzero;stroke:#000;stroke-width:1.49px;"/><path d="M228.26,368.25c-10.385,4.467 -23.988,0.205 -35.253,1.267" style="fill:none;fill-rule:nonzero;stroke:#000;stroke-width:1.57px;"/><path d="M193.004,369.516c-1.173,-0.992 -5.595,-3.713 -6.635,-4.081" style="fill:none;fill-rule:nonzero;stroke:#000;stroke-width:1.61px;"/><path d="M205.88,287.807c0.2,-10.418 -10.482,-37.911 -16.819,-12.497l-0.402,3.633l-0.271,5.544" style="fill:none;fill-rule:nonzero;stroke:#000;stroke-width:1.69px;"/><path d="M259.582,396.249c-6.497,-4.144 -4.292,5.66 -4.279,8.877" style="fill:none;fill-rule:nonzero;stroke:#000;stroke-width:1.49px;"/><path d="M256.82,386.003c-1.702,-7.571 -2.248,-16.607 6.091,-20.206c2.491,-2.962 0.899,-7.965 5.649,-9.509" style="fill:none;fill-rule:nonzero;stroke:#000;stroke-width:1.4px;"/><path d="M278.245,343.461c-2.513,1.026 -6.088,8.955 -9.165,12.271" style="fill:none;fill-rule:nonzero;stroke:#000;stroke-width:1.37px;"/><path d="M261.722,269.715c-4.742,24.66 -10.333,49.779 -9.08,74.988" style="fill:none;fill-rule:nonzero;stroke:#000;stroke-width:1.38px;"/><path d="M250.568,322.407c2.376,-26.847 11.823,-54.061 5.4,-80.975" style="fill:none;fill-rule:nonzero;stroke:#000;stroke-width:1.54px;"/><path d="M249.451,226.764c-2.063,-6.165 -19.988,-13.536 -28.274,-7.254" style="fill:none;fill-rule:nonzero;stroke:#000;stroke-width:1.92px;"/><path d="M207.088,262.58c3.752,15.565 7.121,31.428 13.984,46.015" style="fill:none;fill-rule:nonzero;stroke:#000;stroke-width:1.38px;"/><path d="M202.933,276.802c1.202,3.971 2.399,7.961 4.366,11.645" style="fill:none;fill-rule:nonzero;stroke:#000;stroke-width:1.4px;"/><path d="M230.993,345.699l0.59,1.196" style="fill:none;fill-rule:nonzero;stroke:#000;stroke-width:1.38px;"/><path d="M203.117,278.64c7.788,19.801 18.866,38.52 27.644,57.807c0.856,6.129 6.482,12.026 3.889,18.349" style="fill:none;fill-rule:nonzero;stroke:#000;stroke-width:1.65px;"/><path d="M190.108,281.804c-0.13,-0.704 -1.644,0.196 -2.143,0.458" style="fill:none;fill-rule:nonzero;stroke:#000;stroke-width:1.37px;"/><path d="M186.695,284.188c-0.093,15.196 -8.84,28.54 -7.404,44.006" style="fill:none;fill-rule:nonzero;stroke:#000;stroke-width:1.85px;"/><path d="M185.465,367.098c-9.029,-4.515 -7.367,11.092 -7.246,15.201" style="fill:none;fill-rule:nonzero;stroke:#000;stroke-width:1.9px;"/><path d="M184.025,360.931c12.784,7.289 29.892,3.85 43.744,5.58" style="fill:none;fill-rule:nonzero;stroke:#000;stroke-width:1.62px;"/><path d="M225.074,373.803c5.352,-2.555 3.859,10.053 -0.318,11.199" style="fill:none;fill-rule:nonzero;stroke:#000;stroke-width:1.64px;"/><path d="M225.838,395.301c-11.472,26.802 -27.386,52.23 -35.648,80.263c-0.034,1.853 0.491,3.664 0.391,5.517" style="fill:none;fill-rule:nonzero;stroke:#000;stroke-width:1.66px;"/><path d="M189.809,478.166c3.407,2.274 11.982,27.77 21.471,37.004c4.441,7.242 20.603,14.876 21.216,0.313" style="fill:none;fill-rule:nonzero;stroke:#000;stroke-width:1.5px;"/><path d="M226.568,388.669c-7.086,11.33 -16.772,30.545 -21.456,38.677" style="fill:none;fill-rule:nonzero;stroke:#000;stroke-width:1.41px;"/><path d="M549.215,598.53c6.12,-8.963 15.945,-14.272 23.917,-20.651" style="fill:none;fill-rule:nonzero;stroke:#000;stroke-width:2.32px;"/><path d="M571.632,575.908c18.735,-6.4 37.523,-24.06 38.16,-45.237c0.188,-11.467 0.435,-24.544 -7.627,-33.735" style="fill:none;fill-rule:nonzero;stroke:#000;stroke-width:2.59px;"/><path d="M582.17,553.899c-2.348,-0.465 -3.983,6.9 -7.305,7.362" style="fill:none;fill-rule:nonzero;stroke:#000;stroke-width:1.84px;"/><path d="M570.215,553.139l-4.313,5.825" style="fill:none;fill-rule:nonzero;stroke:#000;stroke-width:1.56px;"/><path d="M580.37,564.633c-0.36,0.38 -4.47,3.81 -6.158,5.145" style="fill:none;fill-rule:nonzero;stroke:#000;stroke-width:2.38px;"/><path d="M595.43,550.95c-0.158,0.492 0.112,1.02 0.6,1.178c0.495,0.159 1.02,-0.112 1.177,-0.604c0.158,-0.492 -0.112,-1.02 -0.6,-1.178c-0.495,-0.158 -1.02,0.112 -1.177,0.604Z" style="fill-rule:nonzero;stroke:#000;stroke-width:0.36px;stroke-linecap:butt;stroke-linejoin:miter;"/><path d="M601.19,495.884c-10.56,-21.578 -34.995,-30.387 -50.79,-47.156" style="fill:none;fill-rule:nonzero;stroke:#000;stroke-width:3.57px;"/><path d="M372.504,341.547c43.881,-0.402 82.934,23.496 116.071,49.851c23.522,16.357 47.567,45.973 67.577,64.201" style="fill:none;fill-rule:nonzero;stroke:#000;stroke-width:2.72px;"/><path d="M373.902,341.599c-9.832,-15.364 7.226,-34.972 -5.846,-48.466c-15.92,9.044 -7.028,39.228 -14.902,55.174c-1.752,6.417 -6.564,7.698 -7.752,11.667" style="fill:none;fill-rule:nonzero;stroke:#000;stroke-width:2.26px;"/><path d="M366.966,252.112c-8.5,10.071 9.386,21.42 5.245,0.08l-1.442,0.624" style="fill:none;fill-rule:nonzero;stroke:#000;stroke-width:1.92px;"/><path d="M346.662,357.678c-11.006,20.065 -20.14,52.416 -24.178,78.493c-8.314,59.723 -20.207,216.678 44.293,264.678" style="fill:none;fill-rule:nonzero;stroke:#000;stroke-width:3.55px;"/><path d="M547.97,602.402c-24.93,34.66 -56.8,63.895 -94.169,84.82c-24.957,15.06 -59.828,30.705 -87.56,14.25c-4.435,-3.608 -12.588,-9.855 -14.464,-14.873" style="fill:none;fill-rule:nonzero;stroke:#000;stroke-width:4.23px;"/><path d="M184.631,529.044c4.29,5.011 3.917,13.28 9.792,17.005" style="fill:none;fill-rule:nonzero;stroke:#000;stroke-width:2.28px;"/><path d="M178.334,536.674c0.312,0.596 3.322,5.402 4.517,7.208" style="fill:none;fill-rule:nonzero;stroke:#000;stroke-width:1.78px;"/><path d="M160.112,531.8l2.158,3.142" style="fill:none;fill-rule:nonzero;stroke:#000;stroke-width:2.6px;"/><path d="M62.025,459.542l3.263,6.382" style="fill:none;fill-rule:nonzero;stroke:#000;stroke-width:1.64px;"/><path d="M52.509,448.605c0.955,1.843 0.878,4.149 2.369,5.757" style="fill:none;fill-rule:nonzero;stroke:#000;stroke-width:3.13px;"/><path d="M35.743,430.2c0.142,0.693 1.439,5.77 1.946,7.616" style="fill:none;fill-rule:nonzero;stroke:#000;stroke-width:2.05px;"/><path d="M563.12,567.411c-0.083,4.707 -3.975,8.081 -6.128,11.902" style="fill:none;fill-rule:nonzero;stroke:#000;stroke-width:1.82px;"/><path d="M549.965,575.606c0.142,3.575 0.097,7.209 -0.855,10.69" style="fill:none;fill-rule:nonzero;stroke:#000;stroke-width:2.41px;"/><path d="M534.057,597.72c0.105,0.834 -1.02,6.159 -1.687,7.987" style="fill:none;fill-rule:nonzero;stroke:#000;stroke-width:3.81px;"/><path d="M511.572,622.999c0.983,1.973 0.248,4.485 -0.825,6.233" style="fill:none;fill-rule:nonzero;stroke:#000;stroke-width:2.79px;"/><path d="M477.004,648.627c-0.07,0.855 -1.216,7.342 -1.719,9.735" style="fill:none;fill-rule:nonzero;stroke:#000;stroke-width:1.41px;"/><path d="M464.859,656.314c0.172,0.66 -0.023,4.29 -0.292,5.438" style="fill:none;fill-rule:nonzero;stroke:#000;stroke-width:2.5px;"/><path d="M444.874,667.842c0.064,0.585 -0.567,4.8 -0.948,6.322" style="fill:none;fill-rule:nonzero;stroke:#000;stroke-width:2.48px;"/><path d="M424.728,680.419c-0.411,0.615 -3.685,5.423 -4.912,7.223" style="fill:none;fill-rule:nonzero;stroke:#000;stroke-width:2.63px;"/><path d="M607.22,542.274c-6.323,12.268 -21.338,25.029 -33.33,31.383" style="fill:none;fill-rule:nonzero;stroke:#000;stroke-width:3.71px;"/><path d="M603.552,548.414c-12.952,19.563 -37.815,27.355 -51.157,47.202l-2.31,2.785l-4.275,6.069" style="fill:none;fill-rule:nonzero;stroke:#000;stroke-width:3.42px;"/><path d="M565.527,584.599c-35.625,40.5 -74.51,86.19 -119.391,108.465c-22.588,12.698 -50.255,25.545 -76.161,15.795c-3.441,-2.332 -17.041,-14.85 -18.198,-18.51" style="fill:none;fill-rule:nonzero;stroke:#000;stroke-width:7.07px;"/><path d="M224.589,561.361c-1.637,5.082 -13.694,7.832 -18.517,5.192" style="fill:none;fill-rule:nonzero;stroke:#000;stroke-width:6.96px;"/><path d="M3.845,396.099c-6.915,23.454 12.138,47.12 33.069,59.482" style="fill:none;fill-rule:nonzero;stroke:#000;stroke-width:4.8px;"/><path d="M31.792,456.537c11.008,11.461 24.655,21.828 33.86,35.022" style="fill:none;fill-rule:nonzero;stroke:#000;stroke-width:4.41px;"/><path d="M40.079,463.755c19.188,14.781 32.091,42.312 53.007,58.206c24.348,21.587 55.361,30.726 84.524,43.274c7.02,1.078 18.868,10.689 23.665,7.516" style="fill:none;fill-rule:nonzero;stroke:#000;stroke-width:4.61px;"/><path d="M121.844,534.804c25.514,14.028 55.052,29.844 82.363,33.273" style="fill:none;fill-rule:nonzero;stroke:#000;stroke-width:6.7px;"/><path d="M193.262,569.817c6.769,1.731 19.807,6.933 24.856,0.389" style="fill:none;fill-rule:nonzero;stroke:#000;stroke-width:7.28px;"/><path d="M250.784,538.592c16.167,-18.003 -9.059,22.336 0.941,8.328" style="fill:none;fill-rule:nonzero;stroke:#000;stroke-width:3.27px;"/><path d="M252.867,539.692c-1.732,4.395 -2.314,9.117 -3.421,13.679" style="fill:none;fill-rule:nonzero;stroke:#000;stroke-width:2.24px;"/></svg>