<svg width="248" height="275" viewBox="0 0 248 275" fill="none" xmlns="http://www.w3.org/2000/svg">
<ellipse cx="117.507" cy="201.768" rx="73.9807" ry="14.6763" fill="#C2D2A7" fill-opacity="0.51"/>
<path d="M150.936 231.884L153.445 216.599C153.862 214.058 155.564 211.913 157.943 210.928L173.02 204.69C174.742 203.977 176.669 203.936 178.42 204.576L220.544 219.974C225.139 221.653 226.891 227.234 224.08 231.239L206.077 256.887C204.002 259.844 200.103 260.883 196.831 259.352L155.124 239.83C152.107 238.417 150.396 235.172 150.936 231.884Z" fill="#D9B68E" stroke="#A25700" stroke-width="4.46512" stroke-linecap="round"/>
<circle cx="164.163" cy="218.837" r="2.60465" fill="white" stroke="black" stroke-width="2.23256" stroke-linecap="round"/>
<path d="M137 198C141.81 208.023 149.296 213.211 162.302 218.465" stroke="#A73F28" stroke-width="4.46512" stroke-linecap="round"/>
<path d="M180.943 215.648C181.058 215.697 181.161 215.827 181.252 216.039C181.354 216.247 181.381 216.4 181.33 216.497C181.095 216.952 180.757 217.568 180.315 218.345C180.207 218.535 180.077 218.767 179.926 219.039C179.779 219.305 179.613 219.616 179.428 219.974C178.842 221.109 178.484 221.976 178.354 222.576C178.253 222.752 178.108 222.849 177.918 222.868C177.732 222.879 177.565 222.854 177.418 222.79C177.09 222.65 176.927 222.452 176.928 222.198C176.938 221.947 177.043 221.627 177.243 221.239C177.987 219.799 178.688 218.482 179.346 217.287C177.91 217.839 176.761 218.326 175.902 218.751C175.902 218.751 175.805 218.764 175.611 218.791C175.414 218.843 175.27 218.85 175.18 218.811C174.967 218.72 174.816 218.596 174.726 218.439C174.637 218.282 174.575 218.083 174.54 217.84L174.344 216.826C174.204 216.128 174.109 215.605 174.059 215.255C173.704 215.942 173.259 216.89 172.724 218.101C172.431 218.805 172.195 219.328 172.018 219.671C171.925 219.85 171.797 219.982 171.633 220.067C171.473 220.144 171.287 220.137 171.073 220.046C170.86 219.955 170.703 219.842 170.603 219.708C170.51 219.577 170.498 219.435 170.567 219.282C170.641 219.159 170.753 218.952 170.903 218.661C171.204 218.079 171.55 217.361 171.941 216.508L172.228 215.893L172.609 215.099C172.72 214.864 172.851 214.592 173 214.283C173.154 213.966 173.325 213.624 173.514 213.259C173.746 212.811 174.128 212.701 174.66 212.929C174.824 213 174.969 213.107 175.094 213.252C175.228 213.4 175.299 213.563 175.308 213.74C175.238 214.029 175.257 214.565 175.362 215.349C175.468 216.132 175.585 216.875 175.713 217.577C176.289 217.313 176.746 217.126 177.084 217.015C177.666 216.818 178.165 216.617 178.581 216.413C179.005 216.212 179.483 215.956 180.013 215.646C180.133 215.588 180.279 215.559 180.449 215.559C180.623 215.551 180.788 215.581 180.943 215.648Z" fill="#5A3911"/>
<path d="M185.497 225.581C185.412 225.745 185.243 225.841 184.988 225.868C184.742 225.9 184.537 225.88 184.373 225.81C184.061 225.677 183.829 225.536 183.675 225.388C183.533 225.236 183.434 225.03 183.379 224.769C183.077 224.85 182.719 224.856 182.304 224.787C181.892 224.711 181.531 224.607 181.22 224.473C180.712 224.256 180.357 223.954 180.157 223.567C179.96 223.173 179.987 222.733 180.237 222.248C180.345 222.039 180.505 221.875 180.717 221.756C180.932 221.63 181.181 221.545 181.464 221.502C181.775 221.462 182.101 221.47 182.443 221.525C182.788 221.573 183.125 221.667 183.453 221.807C183.625 221.881 183.815 221.999 184.021 222.16C184.228 222.322 184.38 222.464 184.476 222.587L184.569 222.408C184.777 222.005 184.813 221.684 184.677 221.443C184.545 221.195 184.241 220.969 183.766 220.766C183.627 220.706 183.474 220.673 183.308 220.665C183.149 220.661 182.961 220.667 182.743 220.683C182.455 220.697 182.209 220.66 182.004 220.572C181.931 220.54 181.884 220.466 181.865 220.348C181.849 220.223 181.861 220.123 181.9 220.049C182.011 219.832 182.218 219.693 182.521 219.631C182.831 219.573 183.161 219.573 183.511 219.632C183.865 219.683 184.165 219.761 184.411 219.867C184.657 219.972 184.916 220.138 185.19 220.364C185.467 220.583 185.67 220.811 185.797 221.048C185.943 221.347 186.014 221.656 186.01 221.973C186.018 222.286 185.943 222.596 185.785 222.902C185.735 222.999 185.652 223.141 185.535 223.328C185.411 223.53 185.31 223.705 185.233 223.855C185.198 223.922 185.138 224.019 185.052 224.146C184.951 224.303 184.875 224.43 184.825 224.527C184.779 224.617 184.775 224.711 184.814 224.81C184.857 224.901 184.928 224.968 185.026 225.01L185.376 225.146C185.466 225.185 185.521 225.245 185.539 225.325C185.557 225.406 185.543 225.491 185.497 225.581ZM181.689 223.594C182.041 223.745 182.354 223.838 182.626 223.873C182.898 223.907 183.249 223.907 183.678 223.872C183.776 223.759 183.883 223.6 183.999 223.395C183.649 223.008 183.326 222.751 183.031 222.624C182.695 222.481 182.367 222.408 182.047 222.408C181.727 222.408 181.493 222.549 181.347 222.833C181.273 222.974 181.277 223.122 181.358 223.275C181.439 223.428 181.55 223.535 181.689 223.594Z" fill="#5A3911"/>
<path d="M194.563 221.562C194.524 221.637 194.397 221.833 194.183 222.152C193.669 222.934 193.194 223.746 192.758 224.59C192.376 225.328 192.098 225.897 191.922 226.295C191.746 226.694 191.653 227.019 191.643 227.27C191.638 227.513 191.737 227.679 191.942 227.767C192.336 227.935 192.471 228.139 192.347 228.378C192.266 228.534 192.111 228.632 191.881 228.67C191.655 228.701 191.439 228.672 191.234 228.585C190.988 228.479 190.786 228.329 190.627 228.133C190.468 227.937 190.383 227.705 190.371 227.436C190.08 227.593 189.733 227.673 189.332 227.674C188.943 227.672 188.597 227.606 188.294 227.476C187.827 227.276 187.459 227.009 187.191 226.675C186.923 226.342 186.77 225.98 186.731 225.59C186.696 225.192 186.775 224.807 186.968 224.434C187.153 224.075 187.375 223.752 187.635 223.462C187.907 223.168 188.181 222.948 188.457 222.802C188.824 222.613 189.235 222.516 189.689 222.51C190.155 222.499 190.568 222.572 190.928 222.726C191.15 222.821 191.337 222.951 191.492 223.118C191.65 223.277 191.774 223.444 191.863 223.619C192.122 223.119 192.28 222.804 192.337 222.673L192.458 222.438C192.817 221.744 193.128 221.258 193.392 220.979C193.645 220.704 193.943 220.641 194.287 220.788C194.475 220.869 194.595 220.966 194.647 221.079C194.699 221.192 194.671 221.353 194.563 221.562ZM188.197 224.933C188.019 225.276 187.983 225.597 188.088 225.898C188.202 226.201 188.41 226.418 188.713 226.548C189.148 226.734 189.531 226.748 189.863 226.589C190.203 226.434 190.474 226.163 190.674 225.775L191.234 224.662C191.081 224.204 190.832 223.901 190.487 223.754C190.25 223.652 189.995 223.611 189.724 223.632C189.466 223.649 189.219 223.739 188.984 223.903C188.717 224.089 188.455 224.433 188.197 224.933Z" fill="#5A3911"/>
<path d="M194.022 226.757C194.257 226.302 194.562 225.973 194.938 225.769C195.317 225.558 195.773 225.402 196.305 225.302C196.458 225.277 196.684 225.296 196.981 225.359C197.282 225.416 197.536 225.487 197.74 225.575C197.986 225.681 198.219 225.84 198.44 226.052C198.672 226.261 198.844 226.462 198.954 226.655C199.153 226.987 199.241 227.311 199.217 227.629C199.196 227.939 199.092 228.277 198.903 228.643C198.822 228.8 198.645 228.91 198.371 228.975C198.109 229.036 197.868 229.02 197.646 228.925L197.185 228.714C196.947 228.612 196.603 228.474 196.153 228.299L195.889 228.2C195.701 228.137 195.562 228.087 195.472 228.048C195.341 227.992 195.168 227.9 194.954 227.772C194.805 228.137 194.806 228.474 194.956 228.784C195.11 229.087 195.334 229.302 195.63 229.428C196.146 229.649 196.555 229.71 196.856 229.612C197.086 229.573 197.237 229.552 197.31 229.546C197.383 229.541 197.481 229.565 197.604 229.617C197.735 229.674 197.821 229.779 197.861 229.933C197.902 230.087 197.893 230.22 197.835 230.332C197.77 230.459 197.616 230.552 197.375 230.613C197.145 230.669 196.85 230.707 196.49 230.726C196.304 230.719 196.064 230.68 195.77 230.609C195.476 230.538 195.239 230.464 195.059 230.387C194.772 230.264 194.491 230.052 194.216 229.752C193.944 229.445 193.771 229.161 193.695 228.9C193.619 228.64 193.605 228.31 193.651 227.911C193.705 227.515 193.829 227.13 194.022 226.757ZM196.624 227.503C197.206 227.752 197.642 227.916 197.932 227.995C198.027 227.771 198.044 227.564 197.982 227.374C197.924 227.176 197.806 226.979 197.626 226.784C197.568 226.722 197.514 226.672 197.464 226.633C197.415 226.593 197.353 226.557 197.279 226.526C196.902 226.364 196.534 226.321 196.176 226.395C195.825 226.473 195.55 226.647 195.351 226.917C195.749 227.114 196.173 227.31 196.624 227.503Z" fill="#5A3911"/>
<path d="M205.732 226.127C206.007 226.272 206.216 226.448 206.359 226.656C206.515 226.859 206.533 227.076 206.413 227.307C206.324 227.479 206.167 227.58 205.941 227.611C205.719 227.634 205.48 227.591 205.226 227.483C204.989 227.381 204.854 227.255 204.821 227.104C204.789 226.954 204.804 226.819 204.865 226.699C204.977 226.483 205.1 226.312 205.235 226.188C205.373 226.056 205.539 226.035 205.732 226.127ZM203.097 230.644L203.265 230.32C203.458 229.947 203.613 229.598 203.73 229.275C203.859 228.947 203.939 228.745 203.969 228.666C204.02 228.588 204.122 228.536 204.275 228.51C204.428 228.485 204.55 228.492 204.64 228.53C204.796 228.597 204.936 228.693 205.061 228.82C205.198 228.942 205.266 229.053 205.264 229.153C205.163 229.446 205.073 229.668 204.996 229.817C204.826 230.145 204.565 230.69 204.212 231.45L203.999 231.892L203.804 232.328C203.75 232.45 203.685 232.596 203.609 232.763C203.532 232.931 203.44 233.119 203.332 233.328C203.259 233.47 203.119 233.556 202.913 233.586C202.716 233.62 202.535 233.602 202.371 233.532C202.133 233.43 201.99 233.31 201.942 233.17C201.902 233.035 201.936 232.863 202.044 232.654L203.097 230.644Z" fill="#5A3911"/>
<path d="M206.475 230.41C206.433 230.337 206.403 230.269 206.385 230.207C206.371 230.137 206.397 230.039 206.462 229.912C206.535 229.77 206.645 229.685 206.79 229.656C206.947 229.623 207.099 229.638 207.247 229.701C207.534 229.824 207.745 229.996 207.88 230.219C208.024 230.444 208.083 230.697 208.058 230.978C208.397 230.75 208.734 230.639 209.071 230.646C209.411 230.646 209.827 230.752 210.319 230.962C210.515 231.046 210.687 231.188 210.834 231.388C210.993 231.584 211.119 231.797 211.21 232.027C211.264 232.251 211.277 232.507 211.248 232.795C211.223 233.076 211.161 233.314 211.06 233.508C211.002 233.62 210.9 233.799 210.752 234.046C210.597 234.307 210.479 234.516 210.398 234.673C210.128 235.195 210.073 235.564 210.233 235.778C210.258 235.807 210.31 235.852 210.388 235.913C210.467 235.974 210.521 236.024 210.55 236.064C210.588 236.108 210.595 236.152 210.572 236.197C210.488 236.379 210.337 236.497 210.119 236.549C209.914 236.598 209.705 236.577 209.492 236.486C209.172 236.349 208.962 236.163 208.863 235.929C208.764 235.696 208.76 235.402 208.852 235.05C208.873 234.913 208.943 234.729 209.062 234.498C209.128 234.371 209.242 234.169 209.405 233.892C209.545 233.679 209.681 233.446 209.812 233.192C209.947 232.931 209.983 232.668 209.919 232.404C209.859 232.132 209.686 231.935 209.399 231.812C209.227 231.738 209.022 231.71 208.783 231.726C208.548 231.735 208.359 231.791 208.216 231.893C207.974 232.072 207.77 232.272 207.606 232.493C207.268 232.914 206.99 233.336 206.77 233.762C206.716 233.866 206.62 234.071 206.482 234.377C206.471 234.399 206.442 234.455 206.396 234.545C206.353 234.627 206.3 234.7 206.237 234.764C206.182 234.831 206.115 234.885 206.035 234.923C205.987 234.939 205.91 234.943 205.804 234.934C205.699 234.925 205.613 234.907 205.547 234.879C205.433 234.829 205.312 234.723 205.186 234.56C205.061 234.397 205.01 234.252 205.035 234.126L205.104 233.964C205.135 233.904 205.189 233.818 205.267 233.706C205.636 233.226 205.92 232.792 206.12 232.404C206.209 232.232 206.273 232.1 206.311 232.007L206.564 231.487C206.645 231.33 206.673 231.16 206.648 230.976C206.627 230.784 206.569 230.596 206.475 230.41Z" fill="#5A3911"/>
<path d="M171.132 235.54C171.049 235.641 170.926 235.707 170.76 235.736C170.607 235.762 170.424 235.729 170.211 235.638C170.03 235.56 169.91 235.454 169.85 235.319C169.798 235.187 169.793 235.071 169.835 234.971C170.046 234.678 170.313 234.219 170.637 233.592C170.83 233.219 171.102 232.634 171.454 231.837C171.774 231.081 172.081 230.42 172.374 229.852C172.532 229.547 172.71 229.24 172.909 228.933C172.963 228.829 173.086 228.745 173.279 228.682C173.48 228.622 173.707 228.628 173.96 228.7C174.778 228.959 175.752 229.331 176.883 229.815L177.276 229.984C177.571 230.11 177.833 230.281 178.062 230.498C178.298 230.717 178.355 230.947 178.232 231.186C178.151 231.342 178.046 231.448 177.918 231.502C177.79 231.557 177.615 231.536 177.394 231.442C177.287 231.396 177.168 231.336 177.036 231.261C176.905 231.187 176.812 231.133 176.759 231.101C176.47 230.923 176.24 230.797 176.068 230.724C175.117 230.316 174.369 230.069 173.824 229.981C173.697 230.228 173.499 230.63 173.23 231.189L172.872 231.911C173.298 232.094 173.687 232.242 174.038 232.356C174.394 232.463 174.598 232.523 174.651 232.536C175.1 232.674 175.395 232.773 175.534 232.832C175.731 232.917 175.873 233.028 175.962 233.166C176.063 233.3 176.071 233.45 175.986 233.614C175.793 233.987 175.41 234.051 174.836 233.805C174.697 233.745 174.572 233.696 174.462 233.658C174.351 233.62 174.257 233.589 174.18 233.565C173.869 233.468 173.628 233.383 173.456 233.309C173.079 233.148 172.753 233.022 172.479 232.932C172.337 233.208 172.199 233.504 172.065 233.821C172.015 233.918 171.942 234.069 171.846 234.274C171.758 234.482 171.672 234.669 171.587 234.833C171.514 234.975 171.443 235.103 171.373 235.219C171.303 235.335 171.223 235.442 171.132 235.54Z" fill="#5A3911"/>
<path d="M177.547 238.233C177.481 238.359 177.37 238.449 177.213 238.5C177.057 238.551 176.901 238.544 176.745 238.477C176.499 238.372 176.34 238.253 176.267 238.122C176.199 237.983 176.225 237.798 176.344 237.567C176.487 237.291 176.666 236.926 176.88 236.471C177.057 236.091 177.211 235.774 177.342 235.52C177.403 235.401 177.493 235.248 177.609 235.061C177.718 234.889 177.796 234.758 177.842 234.668C177.891 234.516 177.889 234.374 177.837 234.242C177.789 234.103 177.687 234 177.531 233.934C177.457 233.902 177.411 233.846 177.393 233.765C177.378 233.677 177.388 233.599 177.423 233.532C177.512 233.36 177.653 233.261 177.847 233.235C178.049 233.212 178.256 233.246 178.469 233.338C178.912 233.527 179.096 233.898 179.021 234.449C179.35 234.316 179.684 234.241 180.024 234.222C180.376 234.2 180.679 234.243 180.933 234.352C181.236 234.482 181.473 234.674 181.641 234.929C181.818 235.187 181.841 235.442 181.71 235.696C181.637 235.838 181.492 235.954 181.276 236.043C181.067 236.136 180.894 236.153 180.754 236.093C180.68 236.062 180.623 236.019 180.581 235.964C180.551 235.906 180.516 235.827 180.477 235.729C180.434 235.619 180.391 235.537 180.349 235.482C180.311 235.421 180.255 235.374 180.181 235.342C180.05 235.286 179.918 235.252 179.784 235.24C179.65 235.228 179.549 235.24 179.481 235.274C179.253 235.405 179.068 235.531 178.925 235.652C178.791 235.776 178.679 235.925 178.591 236.096C178.525 236.223 178.469 236.322 178.422 236.393L178.08 237.026C178.03 237.123 177.978 237.233 177.925 237.356C177.871 237.479 177.833 237.572 177.811 237.635C177.731 237.847 177.643 238.046 177.547 238.233Z" fill="#5A3911"/>
<path d="M181.51 237.579C181.656 237.295 181.86 237.036 182.122 236.802C182.387 236.56 182.675 236.36 182.987 236.202C183.299 236.044 183.698 235.978 184.185 236.004C184.676 236.023 185.081 236.101 185.401 236.238C185.729 236.378 186.039 236.562 186.333 236.788C186.635 237.017 186.807 237.246 186.849 237.473C186.952 237.991 186.907 238.437 186.714 238.81C186.61 239.011 186.473 239.162 186.301 239.262C186.137 239.365 185.927 239.462 185.67 239.552C185.462 239.627 185.194 239.621 184.868 239.536C184.55 239.455 184.243 239.351 183.948 239.224C183.759 239.144 183.538 239.03 183.283 238.885C183.031 238.732 182.792 238.575 182.565 238.413C182.504 238.57 182.47 238.733 182.463 238.903C182.455 239.072 182.477 239.214 182.528 239.327C182.619 239.539 182.741 239.701 182.894 239.812C183.055 239.926 183.275 240.043 183.553 240.163C183.848 240.289 184.146 240.362 184.446 240.381C184.686 240.402 184.871 240.44 185.002 240.496C185.158 240.563 185.254 240.659 185.289 240.783C185.329 240.9 185.314 241.026 185.245 241.16C185.148 241.347 184.95 241.449 184.651 241.467C184.352 241.484 184.031 241.456 183.689 241.382C183.358 241.305 183.099 241.226 182.91 241.145C182.525 240.98 182.185 240.757 181.89 240.475C181.595 240.194 181.388 239.887 181.27 239.554C181.181 239.261 181.155 238.944 181.19 238.604C181.23 238.256 181.336 237.915 181.51 237.579ZM184.971 237.216C184.79 237.138 184.593 237.095 184.378 237.085C184.167 237.067 183.975 237.09 183.802 237.153C183.581 237.231 183.419 237.303 183.316 237.368C183.224 237.429 183.131 237.531 183.038 237.673C183.212 237.82 183.623 238.033 184.27 238.31C184.623 238.461 184.918 238.528 185.157 238.512C185.404 238.499 185.568 238.414 185.648 238.258C185.729 238.101 185.696 237.914 185.549 237.696C185.401 237.477 185.208 237.317 184.971 237.216Z" fill="#5A3911"/>
<path d="M190.933 241.56C190.979 241.625 191.069 241.75 191.204 241.935C191.35 242.117 191.422 242.289 191.418 242.451C191.414 242.613 191.35 242.814 191.227 243.053C191.088 243.321 190.879 243.523 190.599 243.658C190.323 243.786 190.02 243.848 189.692 243.844C189.465 243.838 189.237 243.795 189.008 243.715C188.787 243.639 188.525 243.536 188.222 243.406C188.058 243.336 187.856 243.222 187.617 243.065C187.386 242.911 187.231 242.795 187.152 242.715C186.959 242.469 186.819 242.217 186.731 241.961C186.643 241.705 186.648 241.483 186.744 241.297C186.821 241.148 186.936 241.051 187.089 241.007C187.242 240.963 187.404 240.978 187.576 241.052C187.667 241.09 187.741 241.15 187.8 241.23C187.871 241.305 187.909 241.377 187.915 241.443C187.905 241.675 187.981 241.886 188.144 242.074C188.307 242.262 188.499 242.404 188.721 242.499C189.499 242.832 189.954 242.872 190.085 242.618C190.12 242.551 190.126 242.49 190.105 242.435C190.095 242.376 190.069 242.311 190.027 242.238C189.955 242.125 189.84 241.989 189.682 241.83C189.532 241.675 189.393 241.547 189.264 241.447C188.963 241.236 188.687 240.994 188.437 240.723C188.211 240.463 188.06 240.184 187.983 239.886C187.911 239.582 187.957 239.269 188.123 238.948C188.223 238.754 188.399 238.597 188.651 238.478C188.916 238.354 189.179 238.289 189.442 238.283C189.617 238.294 189.888 238.342 190.255 238.426C190.621 238.51 190.866 238.579 190.989 238.631C191.178 238.712 191.373 238.818 191.575 238.951C191.781 239.075 191.922 239.199 191.998 239.323C192.158 239.537 192.272 239.741 192.342 239.935C192.416 240.122 192.411 240.297 192.326 240.461C192.283 240.543 192.217 240.624 192.126 240.704C192.038 240.776 191.96 240.811 191.891 240.808C191.741 240.808 191.584 240.773 191.421 240.702C191.347 240.671 191.295 240.626 191.265 240.567C191.243 240.513 191.217 240.428 191.185 240.315C191.161 240.149 191.113 240.038 191.043 239.98C190.956 239.916 190.826 239.828 190.653 239.718C190.484 239.6 190.367 239.527 190.301 239.498C190.096 239.411 189.88 239.364 189.653 239.358C189.434 239.355 189.292 239.417 189.226 239.544C189.149 239.693 189.219 239.878 189.435 240.098C189.569 240.247 189.725 240.391 189.903 240.531C190.089 240.674 190.203 240.764 190.244 240.8C190.347 240.872 190.468 240.987 190.606 241.146C190.752 241.309 190.861 241.447 190.933 241.56Z" fill="#5A3911"/>
<path d="M196.87 238.389C196.77 238.583 196.648 238.808 196.505 239.066C196.366 239.316 196.257 239.507 196.179 239.638C195.958 240.008 195.749 240.383 195.553 240.763C195.294 241.263 195.098 241.672 194.965 241.988C195.373 241.643 195.805 241.437 196.261 241.368C196.721 241.291 197.173 241.348 197.615 241.537C197.918 241.667 198.138 241.911 198.273 242.27C198.408 242.629 198.427 242.988 198.331 243.348C198.32 243.389 198.295 243.446 198.257 243.521C198.211 243.61 198.129 243.749 198.013 243.936C197.907 244.082 197.814 244.233 197.733 244.39C197.525 244.793 197.379 245.113 197.296 245.351C197.217 245.582 197.194 245.791 197.228 245.978C197.265 246.158 197.377 246.338 197.564 246.518C197.639 246.587 197.679 246.654 197.685 246.72C197.703 246.783 197.686 246.862 197.636 246.959C197.567 247.094 197.437 247.161 197.247 247.162C197.064 247.166 196.903 247.138 196.764 247.078C196.477 246.955 196.256 246.774 196.1 246.534C195.943 246.294 195.868 246.033 195.872 245.753C195.871 245.561 195.914 245.352 196.002 245.125C196.089 244.898 196.208 244.639 196.358 244.348L196.874 243.379C197.147 242.85 197.096 242.504 196.719 242.343C196.448 242.227 196.082 242.316 195.62 242.61C195.157 242.904 194.708 243.29 194.27 243.768C193.833 244.246 193.524 244.661 193.343 245.011C193.258 245.175 193.137 245.274 192.98 245.307C192.835 245.336 192.705 245.326 192.59 245.277C192.41 245.199 192.271 245.081 192.173 244.921C192.08 244.753 192.066 244.606 192.131 244.479C192.478 243.944 192.991 243.02 193.669 241.706C193.792 241.468 194.229 240.575 194.978 239.027L195.473 237.982C195.558 237.818 195.714 237.711 195.939 237.662C196.169 237.605 196.386 237.621 196.591 237.709C196.771 237.786 196.883 237.879 196.926 237.989C196.97 238.099 196.951 238.232 196.87 238.389Z" fill="#5A3911"/>
<path d="M114.851 38.3068C132.223 52.8617 144.803 114.684 151.392 158.413C166.668 179.08 196.619 170.693 197.817 169.795C199.015 168.896 211.895 158.413 208.3 177.283C204.706 196.152 175.653 201.843 151.392 197.051C151.392 201.244 137.015 219.814 118.146 221.911C103.05 223.588 92.2875 213.424 88.7931 208.133L77.711 202.742C75.1152 204.139 60.0395 208.372 43.2666 208.133C22.3004 207.833 23.1989 184.471 29.4888 173.389C34.5207 164.523 49.7561 163.505 56.7448 164.104L62.7352 150.027C60.7384 150.226 48.2984 149.008 45.6627 148.529C42.368 147.93 33.9768 136.454 37.5757 120.674C41.4695 103.601 74.1168 100.307 77.711 98.8092C81.3052 97.3116 82.8028 83.2343 82.5033 70.0556C66.9284 68.2585 50.9042 60.471 54.9477 41.6014C60.339 16.442 92.6868 19.7368 114.851 38.3068Z" fill="#B1F491" stroke="black" stroke-width="3.5942" stroke-linecap="round"/>
<path d="M81.0057 70.0556C84.5999 70.4549 92.3874 70.7145 94.7835 68.558" stroke="#3E7B28" stroke-opacity="0.55" stroke-width="3.5942" stroke-linecap="round"/>
<path d="M68.7255 193.157C71.1217 199.746 79.2086 203.341 79.2086 203.341" stroke="#3E7B28" stroke-opacity="0.55" stroke-width="3.5942" stroke-linecap="round"/>
<path d="M149.595 182.973C150.494 185.669 151.692 197.051 149.595 200.944" stroke="#3E7B28" stroke-opacity="0.55" stroke-width="3.5942" stroke-linecap="round"/>
<circle cx="90.8898" cy="40.8044" r="2.99517" fill="black"/>
<circle cx="71.1216" cy="34.814" r="2.99517" fill="black"/>
<path d="M41.4695 114.684C46.2618 117.479 55.9661 124.867 56.4453 132.056C57.0444 141.041 51.6531 147.031 47.4598 148.529" stroke="#3E7B28" stroke-opacity="0.55" stroke-width="3.5942" stroke-linecap="round"/>
<path d="M32.4839 169.196C37.0765 170.394 44.7641 175.785 46.2617 184.172C47.7593 192.558 49.8559 204.239 41.1699 208.133" stroke="#3E7B28" stroke-opacity="0.55" stroke-width="3.5942" stroke-linecap="round"/>
<path d="M46.8608 123.669L52.8511 118.278" stroke="#3E7B28" stroke-opacity="0.55" stroke-width="3.5942" stroke-linecap="round"/>
<path d="M51.3535 136.249L60.0395 138.345" stroke="#3E7B28" stroke-opacity="0.55" stroke-width="3.5942" stroke-linecap="round"/>
<path d="M39.3729 178.181L45.9622 174.587" stroke="#3E7B28" stroke-opacity="0.55" stroke-width="3.5942" stroke-linecap="round"/>
<path d="M44.1651 194.655L51.9525 196.751" stroke="#3E7B28" stroke-opacity="0.55" stroke-width="3.5942" stroke-linecap="round"/>
<path d="M81.5103 135.92C76.6824 134.134 74.2685 139.848 70.1303 140.205C37.567 138.885 20.0417 183.377 43.5766 209.135C45.4278 211.161 45.9906 220.207 50.8185 221.635C55.6464 223.064 60.1775 216.369 63.9229 216.992C95.3045 222.211 115.651 166.634 85.9934 146.277C82.8975 144.152 86.3383 137.705 81.5103 135.92Z" fill="#FDE82B" stroke="black" stroke-width="3.5942"/>
<path d="M83.2261 147.63C78.4338 138.525 87.8186 129.06 93.1101 125.466L130.25 138.046C130.35 143.138 128.393 154.699 119.767 160.21C108.985 167.099 89.2164 159.012 83.2261 147.63Z" fill="#B1F491"/>
<path d="M89.6917 209.331C79.8676 195.433 93.7851 183.572 101.972 179.379C108.049 178.655 120.862 180.023 123.498 191.285C126.792 205.362 108.9 223.783 89.6917 209.331Z" fill="#B1F491"/>
<path d="M101.972 179.379C90.6307 182.148 79.5246 197.984 94.145 214.048" stroke="black" stroke-width="3.5942" stroke-linecap="round"/>
<path d="M93.1101 125.466C87.8186 129.06 78.4338 138.525 83.2261 147.63C89.2164 159.012 108.985 167.099 119.767 160.21C128.393 154.699 130.35 143.138 130.25 138.046" stroke="black" stroke-width="3.5942" stroke-linecap="round"/>
<path d="M82.8028 140.442C86.6965 138.545 96.7004 135.889 105.566 140.442C116.648 146.133 122.339 154.519 122.938 157.215" stroke="#3E7B28" stroke-opacity="0.55" stroke-width="3.5942" stroke-linecap="round"/>
<path d="M93.8849 142.239L96.5806 133.853" stroke="#3E7B28" stroke-opacity="0.55" stroke-width="3.5942" stroke-linecap="round"/>
<path d="M114.851 151.824L120.242 145.833" stroke="#3E7B28" stroke-opacity="0.55" stroke-width="3.5942" stroke-linecap="round"/>
<path d="M93.8849 185.669C109.16 183.872 116.349 191.659 117.846 200.645C119.344 209.63 116.948 221.611 110.658 222.21" stroke="#3E7B28" stroke-opacity="0.55" stroke-width="3.5942" stroke-linecap="round"/>
<path d="M107.663 191.959L112.455 185.37" stroke="#3E7B28" stroke-opacity="0.55" stroke-width="3.5942" stroke-linecap="round"/>
<path d="M114.252 203.94L122.938 200.345" stroke="#3E7B28" stroke-opacity="0.55" stroke-width="3.5942" stroke-linecap="round"/>
<ellipse cx="69.5845" cy="202.667" rx="3.29469" ry="2.99517" fill="#ED9C24"/>
<ellipse cx="78.5701" cy="193.082" rx="3.29469" ry="2.99517" fill="#ED9C24"/>
</svg>
