<svg width="221" height="186" fill="none"
  xmlns="http://www.w3.org/2000/svg">
  <path d="M176.9 53c3 20.5 7.5 64 17 91h-53.5c0-7-5-51.5-7-69-49-4.5-45.3-55.4 0-57 29.5-1 40.5 14.5 43.5 35Z" fill="#fff"/>
  <path d="M197.5 143H27c39.7 34.2 129 46.6 170.5 0Z" fill="#DAF8E1"/>
  <path d="M180.9 53c3 20.5 7.5 64 17 91h-53.5c0-7-5-51.5-7-69-49-4.5-45.3-55.4 0-57 29.5-1 40.5 14.5 43.5 35Z" fill="#B1DCA7"/>
  <circle cx="131.5" cy="32" r="2.5" fill="#000"/>
  <circle cx="114.5" cy="32" r="2.5" fill="#000"/>
  <rect x="33" y="106.5" width="39" height="33" rx="4" fill="#FFE1C7"/>
  <path d="m58.7 96.2 3.6 8a2 2 0 0 1-1.9 2.8h-12a2 2 0 0 1-1.3-3.4l8.3-8a2 2 0 0 1 3.3.6Z" fill="#B56964"/>
  <path fill="#FDF4D7" d="M33 118.5h39v11H33z"/>
  <path d="m47.3 122.6 3 4.3a1 1 0 0 1-.7 1.6H43a1 1 0 0 1-.8-1.6l3.4-4.4a1 1 0 0 1 1.6 0Z" fill="#FF8B8B"/>
  <path d="m37.8 125.5 3-5.5a1 1 0 0 0-1-1.5h-5.3a1 1 0 0 0-1 1v5.5c0 .6.4 1 1 1h2.4c.4 0 .7-.2.9-.5Z" fill="#F99946"/>
  <path d="m60 123.2.7-3a1 1 0 0 0-1-1.2h-6.6a1 1 0 0 0-1 1l.2 3c0 .6.4 1 1 1h5.6a1 1 0 0 0 1-.8Z" fill="#FF8B8B"/>
  <path d="M33 109a3 3 0 0 1 3-3h33a3 3 0 0 1 3 3v2H33v-2Z" fill="#fff"/>
  <path d="m63.4 127.2 6.5-5a1 1 0 0 1 1.6.8v5c0 .6-.4 1-1 1H64a1 1 0 0 1-.6-1.8Z" fill="#F99946"/>
  <rect x="33" y="105.5" width="39" height="33" rx="4" stroke="#E1B893" stroke-width="3"/>
  <path d="M53 143c18.2 0 33-3.3 33-7.5H20c0 4.2 14.8 7.5 33 7.5Z" fill="#A2D6EC"/>
  <path d="M89.5 144 87 86h38l-3 58H89.5Z" fill="#fff"/>
  <path fill="#7FD0F2" d="m118.6 71.7 5 .7-9 67.5-5-.7z"/>
  <path d="m89 92.3 11-20.5C86.6 65.5 75.9 85 89 92.3Z" fill="#FFED63" stroke="#FFCB7D" stroke-width="3"/>
  <path d="M111.5 85.5H86l.7 14.5M115 85.5h9l-3 58H89L87 105" stroke="#B8EAFF" stroke-width="3" stroke-linecap="round"/>
  <path d="M89 102.5h32l-2.5 39h-27l-2.5-39Z" fill="#FFF851" fill-opacity=".9"/>
  <circle cx="112.5" cy="122.5" r="1.5" fill="#fff"/>
  <circle cx="98.5" cy="129.5" r="1.5" fill="#fff"/>
  <circle cx="111.5" cy="135.5" r="1.5" fill="#fff"/>
  <circle cx="94" cy="122" r="1" fill="#fff"/>
  <path d="m104 106.1 3.2-5.6a2 2 0 0 1 2.4-.9l8.3 3.1a2 2 0 0 1 1.1 2.8l-3.1 6.3a2 2 0 0 1-2.7.9l-8.2-3.8a2 2 0 0 1-1-2.8Z" fill="#fff" stroke="#BCEBFF" stroke-width="3"/>
  <path d="m103.6 109.4 1.3-3a2 2 0 0 0-1.3-2.7l-8.6-2.5a2 2 0 0 0-2 .5l-.7.7a2 2 0 0 0-.6 1.6l.4 4a2 2 0 0 0 1.8 1.9l7.7.7a2 2 0 0 0 2-1.2Z" fill="#fff" stroke="#BCEBFF" stroke-width="3"/>
  <path d="m108.5 106.2-1.5-.9a2 2 0 0 0-1.1-.2l-3 .2a2 2 0 0 0-1.9 2v3.6c0 1.1 1 2 2.1 2l3.6-.3a2 2 0 0 0 1.7-1.3l1-2.7c.4-1 0-2-.9-2.4Z" fill="#fff" stroke="#BCEBFF" stroke-width="3"/>
  <path d="M92 105.9c2.5-11.5 8.5-11.5 13-10.5-2.3 4.5-2.2 10-13 10.5Z" fill="#65D488"/>
  <path d="M92.9 106.4c-5-2-4.7-5.7-4-8.4 1.9 1.6 4.3 1.7 4 8.4Z" fill="#65D488"/>
  <path d="M177.5 53c3 20.5 7.5 64 17 91H141c0-7-5-51.5-7-69a51 51 0 0 1-20.8-6m63.3-21.5C172.3 29.8 160.8 17.1 134 18c-35.7 1.3-45.6 33.3-24 49" stroke="#72B961" stroke-width="3" stroke-linecap="round" stroke-linejoin="round"/>
  <path d="M133 75c3.8.3 9.6.7 12-.5" stroke="#72B961" stroke-width="3" stroke-linecap="round"/>
  <path d="M15 144h192" stroke="#60ACCC" stroke-width="3" stroke-linecap="round"/>
  <path d="M92.5 105.5c-1 1.2-2.5 5-2 7.5" stroke="#65D488" stroke-width="2" stroke-linecap="round"/>
</svg>